<svg width="100" height="90" viewBox="0 0 100 90" fill="none" xmlns="http://www.w3.org/2000/svg">
<g clip-path="url(#clip0_488_14)">
<path d="M94.445 11.668H88.8903V6.11329C88.8903 3.05859 86.3903 0.558594 83.3356 0.558594H5.55861C2.50391 0.558594 0.00390625 3.05859 0.00390625 6.11329V72.7813C0.00390625 75.836 2.50391 78.336 5.55861 78.336H11.1133V83.8907C11.1133 86.9454 13.6133 89.4454 16.668 89.4454H94.445C97.4997 89.4454 99.9997 86.9454 99.9997 83.8907V17.2227C99.9997 14.168 97.4997 11.668 94.445 11.668ZM11.109 17.2227V72.7777H5.56601C5.5621 72.7738 5.5621 72.7738 5.55429 72.766V6.12098C5.55819 6.11707 5.55819 6.11707 5.56601 6.10926H83.32C83.3239 6.11316 83.3239 6.11316 83.3317 6.12098V11.664H16.6637C13.609 11.664 11.109 14.164 11.109 17.2187L11.109 17.2227ZM94.445 83.8787C94.4411 83.8826 94.4411 83.8826 94.4333 83.8904H16.6793C16.6754 83.8865 16.6754 83.8865 16.6676 83.8787V17.2337L16.6793 17.222H94.4333C94.4372 17.2259 94.4372 17.2259 94.445 17.2337V83.8787Z" fill="green"/>
<path d="M83.332 31.109C83.332 35.7106 79.5976 39.441 75 39.441C70.3984 39.441 66.668 35.7066 66.668 31.109C66.668 26.5074 70.4024 22.777 75 22.777C79.6016 22.777 83.332 26.5114 83.332 31.109Z" fill="green"/>
<path d="M88.891 78.332H22.223V67.223L41.668 33.891L63.891 61.668H69.4457L88.8907 45L88.891 78.332Z" fill="green"/>
</g>
<defs>
<clipPath id="clip0_488_14">
<rect width="100" height="90" fill="green"/>
</clipPath>
</defs>
</svg>
