<svg width="518" height="94" viewBox="0 0 518 94" fill="none" xmlns="http://www.w3.org/2000/svg">
<g clip-path="url(#clip0_311_42)">
<path d="M2.59335 23.5159V0.710083H4.41626V23.5159H2.59335Z" fill="#00A099"/>
<path d="M27.404 23.5159L16.7692 6.89396C15.7221 5.27242 14.8444 3.81921 14.068 2.33221C14.1687 5.17049 14.3037 12.5361 14.3037 16.9959V23.5165H12.4808V0.710678H14.9457L25.4786 17.1305C26.2557 18.3134 26.9652 19.5634 27.6391 20.8471C27.5047 17.5015 27.4034 11.3194 27.4034 6.62311V0.710083H29.2263V23.5159H27.404Z" fill="#00A099"/>
<path d="M43.9311 2.19768V23.5165H42.107V2.19768H34.8822V0.710083H51.1558V2.19768H43.9311Z" fill="#00A099"/>
<path d="M56.7915 23.5159V0.710083H68.2028V2.16271H58.615V11.0148H67.4269V12.4686H58.615V22.03H68.2028V23.5165H56.7915V23.5159Z" fill="#00A099"/>
<path d="M86.6984 23.5159L78.6629 13.0091H76.5693V23.5165H74.7464V0.743911C74.7464 0.743911 77.5827 0.609375 79.9463 0.609375C84.301 0.609375 87.5092 2.36544 87.5092 6.45365C87.5092 10.6776 84.336 12.6707 80.7239 12.9404C80.7239 12.9404 81.736 14.0552 82.7156 15.3389L89.0626 23.5159H86.6984ZM76.5687 11.5553C76.5687 11.5553 78.1554 11.5903 79.54 11.5903C83.524 11.5903 85.6176 9.73109 85.6176 6.75887C85.6176 3.65094 83.4565 2.06259 79.6756 2.06259C78.1554 2.06259 76.5687 2.16335 76.5687 2.16335V11.5553Z" fill="#00A099"/>
<path d="M109.87 23.5158L99.2349 6.89335C98.1884 5.27181 97.3101 3.8186 96.5343 2.3316C96.635 5.16988 96.77 12.5355 96.77 16.9953V23.5158H94.9471V0.710065H97.412L107.945 17.1299C108.721 18.3128 109.43 19.5628 110.105 20.8465C109.97 17.5009 109.87 11.3188 109.87 6.6225V0.709473H111.693V23.5153H109.87V23.5158Z" fill="#00A099"/>
<path d="M134.401 23.5159L132.241 17.5359H121.471L119.276 23.5159H117.318L125.994 0.710083H127.919L136.527 23.5159H134.401ZM127.919 5.74419C127.513 4.62938 127.175 3.6503 126.872 2.70322H126.839C126.534 3.6503 126.197 4.62938 125.825 5.67722L122.011 16.0489H131.7L127.919 5.74419Z" fill="#00A099"/>
<path d="M146.05 2.19768V23.5165H144.227V2.19768H137.002V0.710083H153.274V2.19768H146.05Z" fill="#00A099"/>
<path d="M158.91 23.5159V0.710083H160.733V23.5159H158.91Z" fill="#00A099"/>
<path d="M177.447 23.7855C171.067 23.7855 167.488 19.1574 167.488 12.3329C167.488 4.62939 172.248 0.44043 177.988 0.44043C184.368 0.44043 187.947 5.06856 187.947 11.8931C187.947 19.5966 183.187 23.7855 177.447 23.7855ZM177.718 1.96002C173.126 1.96002 169.378 5.44075 169.378 11.8931C169.378 17.975 172.181 22.2659 177.718 22.2659C182.309 22.2659 186.057 18.7864 186.057 12.2997C186.057 6.25152 183.254 1.96002 177.718 1.96002Z" fill="#00A099"/>
<path d="M209.632 23.5158L198.997 6.89335C197.951 5.27181 197.073 3.8186 196.296 2.3316C196.398 5.16988 196.533 12.5355 196.533 16.9953V23.5158H194.71V0.710065H197.173L207.708 17.1299C208.484 18.3128 209.193 19.5628 209.869 20.8465C209.733 17.5009 209.632 11.3188 209.632 6.6225V0.709473H211.456V23.5153H209.632V23.5158Z" fill="#00A099"/>
<path d="M234.164 23.5159L232.003 17.5359H221.233L219.038 23.5159H217.079L225.757 0.710083H227.68L236.29 23.5159H234.164ZM227.682 5.74419C227.276 4.62938 226.939 3.6503 226.636 2.70322H226.601C226.298 3.6503 225.96 4.62938 225.589 5.67722L221.773 16.0489H231.462L227.682 5.74419Z" fill="#00A099"/>
<path d="M241.916 23.5159V0.710083H243.739V22.03H252.653V23.5165H241.916V23.5159Z" fill="#00A099"/>
<path d="M72.7577 36.5954C71.2676 36.0721 69.6171 35.7899 67.9653 35.7899C65.3879 35.7899 64.2212 36.7981 64.2212 38.3283C64.2212 42.6009 75.4157 41.1085 75.4157 50.0151C75.4157 55.1328 71.5501 58.7593 64.583 58.7593C62.1276 58.7593 59.9529 58.4778 58.1401 58.0345L58.7045 52.0699C60.5161 52.7959 62.7714 53.2795 64.9058 53.2795C67.0805 53.2795 68.6908 52.5132 68.6908 50.6599C68.6908 46.1468 57.6177 47.8797 57.6177 38.934C57.6177 33.9367 61.5632 30.5917 68.3698 30.5917C69.7787 30.5917 71.7521 30.7535 73.3227 31.1162L72.7577 36.5954Z" fill="#E74027"/>
<path d="M80.3698 58.2763V31.0753H86.6516V52.7953H94.8666V58.2763H80.3698Z" fill="#E74027"/>
<path d="M116.735 58.2763L115.083 52.9168H105.742L104.091 58.2763H97.8497L106.506 31.0753H114.803L123.581 58.2763H116.735ZM111.5 40.7055C111.057 39.2956 110.735 37.8845 110.453 36.5154H110.371C110.13 37.885 109.768 39.3365 109.365 40.7055L107.111 47.9598H113.755L111.5 40.7055Z" fill="#E74027"/>
<path d="M144.904 57.469C142.971 58.1951 140.475 58.6384 138.14 58.6384C128.113 58.6384 125.415 51.7878 125.415 45.662C125.415 36.8366 130.207 30.8732 139.187 30.8732C141.079 30.8732 143.093 31.115 144.744 31.6395L143.939 37.3611C142.409 36.7975 140.757 36.5148 139.065 36.5148C134.677 36.5148 132.301 39.698 132.301 44.6141C132.301 49.9736 134.476 52.9162 139.347 52.9162C140.796 52.9162 142.73 52.5529 144.018 51.9081L144.904 57.469Z" fill="#E74027"/>
<path d="M163.711 58.2763L156.343 45.5014V58.2763H150.062V31.0753H156.343V43.0839L163.793 31.0753H171.323L162.382 44.1312L171.846 58.2763H163.711Z" fill="#E74027"/>
<path d="M175.887 58.2763V31.0753H182.169V52.7953H190.384V58.2763H175.887Z" fill="#E74027"/>
<path d="M194.49 58.2763V31.0753H200.77V58.2763H194.49Z" fill="#E74027"/>
<path d="M222.311 58.2763L215.103 44.4944C214.136 42.5197 213.451 40.8679 212.968 39.2553C213.089 41.2703 213.25 47.114 213.25 50.6593V58.2763H207.25V31.0753H215.506L222.27 44.0108C223.076 45.6223 223.882 47.517 224.445 49.2091C224.244 46.8722 224.162 41.0694 224.162 37.8453V31.0747H230.123V58.2757H222.311V58.2763Z" fill="#E74027"/>
<path d="M236.677 58.2763V31.0753H252.663V36.3548H242.959V41.7534H251.817V46.8722H242.959V52.8765H252.663V58.2763H236.677Z" fill="#E74027"/>
<path d="M19.8565 93.035L18.2048 87.6755H8.86279L7.21222 93.035H0.970612L9.62737 65.8346H17.9235L26.7016 93.035H19.8565ZM14.6211 75.466C14.1781 74.0561 13.8565 72.6449 13.5746 71.2759H13.4935C13.2519 72.6455 12.8894 74.0958 12.4873 75.466L10.2326 82.7191H16.877L14.6211 75.466Z" fill="#E74027"/>
<path d="M44.9781 71.3553C43.4881 70.8319 41.8375 70.5498 40.1857 70.5498C37.6083 70.5498 36.4416 71.5568 36.4416 73.0882C36.4416 77.3596 47.6361 75.8684 47.6361 84.775C47.6361 89.8927 43.7706 93.5192 36.8035 93.5192C34.3468 93.5192 32.1733 93.2365 30.3605 92.7932L30.9237 86.8298C32.736 87.5558 34.9906 88.0394 37.125 88.0394C39.2997 88.0394 40.9112 87.2731 40.9112 85.4198C40.9112 80.9067 29.8369 82.6396 29.8369 73.6927C29.8369 68.6966 33.7836 65.3516 40.5885 65.3516C41.9986 65.3516 43.9719 65.5122 45.5413 65.8761L44.9781 71.3553Z" fill="#E74027"/>
<path d="M66.2288 71.3553C64.7388 70.8319 63.0882 70.5498 61.4364 70.5498C58.859 70.5498 57.6923 71.5568 57.6923 73.0882C57.6923 77.3596 68.8874 75.8684 68.8874 84.775C68.8874 89.8927 65.0213 93.5192 58.0542 93.5192C55.5987 93.5192 53.424 93.2365 51.6112 92.7932L52.1756 86.8298C53.9873 87.5558 56.2425 88.0394 58.3769 88.0394C60.5516 88.0394 62.1619 87.2731 62.1619 85.4198C62.1619 80.9067 51.0888 82.6396 51.0888 73.6927C51.0888 68.6966 55.0343 65.3516 61.8403 65.3516C63.2493 65.3516 65.2226 65.5122 66.7932 65.8761L66.2288 71.3553Z" fill="#E74027"/>
<path d="M85.4156 93.5595C77.0396 93.5595 72.6908 88.7233 72.6908 80.0194C72.6908 70.5089 78.9726 65.3107 86.3016 65.3107C94.6368 65.3107 98.9862 70.1468 98.9862 78.8507C98.9862 88.3612 92.7043 93.5595 85.4156 93.5595ZM85.8586 71.0334C81.9931 71.0334 79.4156 73.9345 79.4156 79.3746C79.4156 84.6938 81.5501 87.8373 85.8586 87.8373C89.7242 87.8373 92.3016 84.9356 92.3016 79.4949C92.3016 74.1764 90.1671 71.0334 85.8586 71.0334Z" fill="#E74027"/>
<path d="M122.517 92.2295C120.585 92.9556 118.088 93.3989 115.751 93.3989C105.725 93.3989 103.027 86.5483 103.027 80.4225C103.027 71.5971 107.818 65.6337 116.799 65.6337C118.692 65.6337 120.704 65.8755 122.356 66.3988L121.549 72.1216C120.02 71.5568 118.368 71.2753 116.678 71.2753C112.289 71.2753 109.913 74.4585 109.913 79.3746C109.913 84.7341 112.087 87.6755 116.959 87.6755C118.409 87.6755 120.342 87.3134 121.63 86.6686L122.517 92.2295Z" fill="#E74027"/>
<path d="M127.747 93.035V65.8346H134.028V93.035H127.747Z" fill="#E74027"/>
<path d="M156.78 93.035L155.13 87.6755H145.787L144.137 93.035H137.895L146.553 65.8346H154.848L163.626 93.035H156.78ZM151.545 75.466C151.102 74.0561 150.78 72.6449 150.498 71.2759H150.419C150.177 72.6455 149.813 74.0958 149.411 75.466L147.157 82.7191H153.801L151.545 75.466Z" fill="#E74027"/>
<path d="M175.878 71.1947V93.0356H169.636V71.1947H163.112V65.8352H182.401V71.1947H175.878Z" fill="#E74027"/>
<path d="M186.603 93.035V65.8346H192.884V93.035H186.603Z" fill="#E74027"/>
<path d="M210.91 93.5595C202.534 93.5595 198.185 88.7233 198.185 80.0194C198.185 70.5089 204.467 65.3107 211.795 65.3107C220.131 65.3107 224.479 70.1468 224.479 78.8507C224.479 88.3612 218.199 93.5595 210.91 93.5595ZM211.352 71.0334C207.486 71.0334 204.909 73.9345 204.909 79.3746C204.909 84.6938 207.044 87.8373 211.352 87.8373C215.217 87.8373 217.795 84.9356 217.795 79.4949C217.795 74.1764 215.661 71.0334 211.352 71.0334Z" fill="#E74027"/>
<path d="M244.851 93.035L237.643 79.2531C236.676 77.2795 235.991 75.6266 235.508 74.0151C235.629 76.029 235.79 81.8727 235.79 85.4192V93.035H229.79V65.8346H238.046L244.81 78.7701C245.616 80.3816 246.422 82.2751 246.985 83.9684C246.784 81.6303 246.702 75.8275 246.702 72.6034V65.834H252.663V93.0344H244.851V93.035Z" fill="#E74027"/>
<path d="M313.016 16.5564V0.73877H265.248L313.016 16.5564Z" fill="#00A099"/>
<path d="M404.761 46.9374H429.824L457.068 0.737305H340.84C329.983 0.737305 320.882 8.24046 318.417 18.3448L404.761 46.9374Z" fill="#00A099"/>
<path d="M462.572 66.0823L496.386 58.0777L462.572 0.737915L430.333 55.406L462.572 66.0823Z" fill="#00A099"/>
<path d="M401.529 50.6101L317.78 22.8763C317.767 23.1958 317.756 23.5152 317.756 23.8371C317.756 36.5912 328.084 46.9315 340.828 46.9374H317.756V93.1375H388.973V93.1351C388.998 93.1363 389.023 93.1375 389.048 93.1375C401.797 93.1375 412.131 82.7949 412.131 70.0371C412.132 61.8826 407.905 54.7209 401.529 50.6101Z" fill="#E74027"/>
<path d="M265.242 5.47864V93.1375H313.016V21.2987L265.242 5.47864Z" fill="#E74027"/>
<path d="M462.572 70.8259L427.993 59.3756L408.084 93.138C502.883 93.138 421.768 93.138 517.06 93.138L498.841 62.2417L462.572 70.8259Z" fill="#E74027"/>
</g>
<defs>
<clipPath id="clip0_311_42">
<rect width="518" height="94" fill="white"/>
</clipPath>
</defs>
</svg>
