<svg width="652" height="509" fill="none" xmlns="http://www.w3.org/2000/svg"><g clip-path="url(#a)"><path d="M126.612 40.314V.003H4.732l121.88 40.31zM360.701 117.739h63.949L494.162 0H197.604c-27.702 0-50.923 19.122-57.211 44.872l220.308 72.867zM508.207 166.529l86.278-20.399L508.207.002 425.949 139.32l82.258 27.208z" fill="#00A099"/><path d="M352.454 127.099 138.767 56.42a60.334 60.334 0 0 0-.062 2.449c0 32.503 26.353 58.855 58.869 58.87h-58.869v117.739h181.711v-.006c.065.003.129.006.192.006 32.53 0 58.899-26.358 58.899-58.87.001-20.781-10.783-39.033-27.053-49.509zM4.715 12.083v223.395h121.897V52.4L4.715 12.083zM508.207 178.618l-88.228-29.18-50.799 86.042h278.055l-46.488-78.738-92.54 21.876z" fill="#E74027"/><path d="M13.563 327.515v-58.12h4.65v58.12h-4.65zM76.868 327.515l-27.135-42.36c-2.672-4.133-4.911-7.836-6.893-11.626.257 7.234.602 26.005.602 37.37v16.618H38.79v-58.12h6.289l26.875 41.845c1.983 3.015 3.793 6.2 5.513 9.472-.344-8.526-.602-24.281-.602-36.249v-15.07h4.651v58.12h-4.65zM119.037 273.186v54.331h-4.654v-54.331H95.949v-3.791h41.522v3.791h-18.434zM151.85 327.515v-58.12h29.117v3.702h-24.464v22.559h22.484v3.705h-22.484v24.368h24.464v3.788H151.85v-.002zM228.159 327.515l-20.503-26.776h-5.342v26.778h-4.651v-58.035s7.237-.343 13.267-.343c11.112 0 19.297 4.475 19.297 14.894 0 10.764-8.096 15.844-17.313 16.531 0 0 2.583 2.841 5.082 6.112l16.195 20.839h-6.032zm-25.846-30.481s4.048.089 7.581.089c10.165 0 15.507-4.738 15.507-12.313 0-7.92-5.514-11.968-15.161-11.968-3.879 0-7.927.257-7.927.257v23.935zM287.281 327.515l-27.135-42.362c-2.67-4.132-4.911-7.836-6.891-11.625.257 7.233.602 26.004.602 37.37v16.617h-4.652v-58.12h6.29l26.875 41.846c1.981 3.014 3.79 6.2 5.512 9.471-.346-8.526-.601-24.281-.601-36.249v-15.069h4.651v58.12h-4.651v.001zM349.874 327.515l-5.512-15.24H316.88l-5.598 15.24h-4.997l22.137-58.12h4.911l21.964 58.12h-5.423zm-16.541-45.29a204.624 204.624 0 0 1-2.67-7.75h-.086a274.06 274.06 0 0 1-2.585 7.579l-9.733 26.432h24.723l-9.649-26.261zM379.595 273.186v54.331h-4.652v-54.331h-18.434v-3.791h41.52v3.791h-18.434zM412.408 327.515v-58.12h4.652v58.12h-4.652zM459.706 328.202c-16.279 0-25.411-11.794-25.411-29.186 0-19.632 12.145-30.308 26.791-30.308 16.279 0 25.411 11.795 25.411 29.187 0 19.632-12.145 30.307-26.791 30.307zm.691-55.621c-11.717 0-21.28 8.87-21.28 25.314 0 15.499 7.152 26.435 21.28 26.435 11.714 0 21.276-8.868 21.276-25.399.002-15.413-7.15-26.35-21.276-26.35zM541.826 327.515l-27.135-42.362c-2.669-4.132-4.908-7.836-6.892-11.625.26 7.233.604 26.004.604 37.37v16.617h-4.651v-58.12h6.286l26.878 41.846c1.981 3.014 3.79 6.2 5.514 9.471-.346-8.526-.604-24.281-.604-36.249v-15.069h4.654v58.12h-4.654v.001zM604.419 327.515l-5.514-15.24h-27.478l-5.602 15.24h-4.997l22.141-58.12h4.908l21.967 58.12h-5.425zm-16.539-45.29a209.951 209.951 0 0 1-2.669-7.75h-.089a257.976 257.976 0 0 1-2.582 7.579l-9.735 26.432h24.722l-9.647-26.261zM624.2 327.515v-58.12h4.651v54.334h22.744v3.788H624.2v-.002z" fill="#00A099"/><path d="M54.097 361.038c-3.802-1.334-8.014-2.053-12.228-2.053-6.577 0-9.553 2.57-9.553 6.469 0 10.889 28.563 7.086 28.563 29.784 0 13.042-9.863 22.284-27.64 22.284-6.265 0-11.814-.717-16.44-1.847l1.44-15.201c4.623 1.85 10.377 3.083 15.823 3.083 5.55 0 9.658-1.953 9.658-6.676 0-11.502-28.253-7.085-28.253-29.883 0-12.736 10.067-21.26 27.434-21.26 3.595 0 8.63.412 12.637 1.337l-1.441 13.963zM73.519 416.291V346.97h16.028v55.353h20.961v13.968H73.519zM166.306 416.291l-4.215-13.658h-23.834l-4.212 13.658H118.12l22.087-69.321h21.168l22.398 69.321h-17.467zm-13.358-44.778c-1.131-3.594-1.951-7.19-2.672-10.679h-.207c-.617 3.491-1.54 7.19-2.567 10.679L141.749 390h16.953l-5.754-18.487zM238.18 414.234c-4.932 1.85-11.301 2.98-17.26 2.98-25.584 0-32.467-17.459-32.467-33.07 0-22.491 12.228-37.689 35.139-37.689 4.828 0 9.966.617 14.179 1.953l-2.054 14.582c-3.905-1.437-8.119-2.157-12.435-2.157-11.197 0-17.26 8.112-17.26 20.641 0 13.658 5.549 21.157 17.98 21.157 3.697 0 8.629-.926 11.916-2.569l2.262 14.172zM286.167 416.291l-18.8-32.556v32.556h-16.028V346.97h16.028v30.604l19.007-30.604h19.214l-22.812 33.273 24.146 36.048h-20.755zM317.234 416.291V346.97h16.028v55.353h20.961v13.968h-36.989zM364.698 416.291V346.97h16.025v69.321h-16.025zM435.684 416.291l-18.39-35.122c-2.468-5.033-4.215-9.243-5.448-13.352.31 5.135.721 20.027.721 29.063v19.411h-15.309V346.97h21.063l17.26 32.966c2.055 4.107 4.112 8.936 5.549 13.248-.514-5.956-.721-20.744-.721-28.96v-17.255h15.21v69.321h-19.935v.001zM472.341 416.291V346.97h40.787v13.455h-24.759v13.758h22.602v13.045h-22.602v15.302h24.759v13.761h-40.787zM48.543 507.015l-4.214-13.658H20.493l-4.212 13.658H.356l22.087-69.319h21.168l22.398 69.319H48.543zm-13.358-44.774c-1.13-3.593-1.95-7.189-2.67-10.678h-.207c-.616 3.491-1.541 7.186-2.567 10.678l-5.753 18.485H40.94l-5.756-18.485zM112.642 451.765c-3.802-1.333-8.014-2.052-12.228-2.052-6.576 0-9.553 2.566-9.553 6.469 0 10.885 28.563 7.085 28.563 29.783 0 13.042-9.863 22.284-27.64 22.284-6.268 0-11.814-.72-16.44-1.85l1.438-15.197c4.624 1.85 10.376 3.082 15.822 3.082 5.55 0 9.661-1.953 9.661-6.676 0-11.501-28.256-7.085-28.256-29.886 0-12.732 10.07-21.257 27.432-21.257 3.598 0 8.633.409 12.638 1.337l-1.437 13.963zM166.863 451.765c-3.802-1.333-8.013-2.052-12.227-2.052-6.577 0-9.554 2.566-9.554 6.469 0 10.885 28.565 7.085 28.565 29.783 0 13.042-9.865 22.284-27.641 22.284-6.265 0-11.814-.72-16.44-1.85l1.44-15.197c4.623 1.85 10.377 3.082 15.823 3.082 5.549 0 9.658-1.953 9.658-6.676 0-11.501-28.254-7.085-28.254-29.886 0-12.732 10.067-21.257 27.433-21.257 3.595 0 8.63.409 12.638 1.337l-1.441 13.963zM215.819 508.352c-21.372 0-32.468-12.325-32.468-34.506 0-24.237 16.028-37.485 34.728-37.485 21.268 0 32.365 12.325 32.365 34.506 0 24.237-16.028 37.485-34.625 37.485zm1.13-57.407c-9.863 0-16.439 7.394-16.439 21.257 0 13.556 5.446 21.567 16.439 21.567 9.863 0 16.439-7.395 16.439-21.26 0-13.554-5.446-21.564-16.439-21.564zM310.484 504.963c-4.931 1.85-11.3 2.98-17.263 2.98-25.583 0-32.466-17.459-32.466-33.07 0-22.491 12.225-37.689 35.139-37.689 4.83 0 9.964.616 14.179 1.95l-2.058 14.584c-3.902-1.439-8.116-2.156-12.431-2.156-11.197 0-17.26 8.112-17.26 20.64 0 13.659 5.546 21.155 17.98 21.155 3.699 0 8.63-.923 11.918-2.566l2.262 14.172zM323.827 507.015v-69.319h16.027v69.319h-16.027zM397.908 507.015l-4.212-13.658h-23.838l-4.211 13.658h-15.926l22.091-69.319h21.165l22.398 69.319h-17.467zm-13.358-44.774c-1.131-3.593-1.951-7.189-2.672-10.678h-.203c-.616 3.491-1.544 7.186-2.57 10.678l-5.753 18.485h16.953l-5.755-18.485zM446.635 451.356v55.661h-15.926v-55.661h-16.646v-13.658h49.217v13.658h-16.645zM474 507.015v-69.319h16.028v69.319H474zM536.02 508.352c-21.371 0-32.468-12.325-32.468-34.506 0-24.237 16.029-37.485 34.726-37.485 21.27 0 32.365 12.325 32.365 34.506 0 24.237-16.025 37.485-34.623 37.485zm1.128-57.407c-9.865 0-16.44 7.394-16.44 21.257 0 13.556 5.448 21.567 16.44 21.567 9.863 0 16.439-7.395 16.439-21.26 0-13.554-5.445-21.564-16.439-21.564zM622.621 507.015l-18.391-35.122c-2.467-5.03-4.214-9.242-5.447-13.349.31 5.132.721 20.025.721 29.063v19.408h-15.309v-69.319h21.064l17.259 32.966c2.055 4.107 4.112 8.932 5.549 13.247-.514-5.958-.721-20.746-.721-28.963v-17.251h15.209v69.319h-19.934v.001z" fill="#E74027"/></g><defs><clipPath id="a"><path fill="#fff" d="M0 0h652v509H0z"/></clipPath></defs></svg>